<?xml version="1.0" encoding="UTF-8" standalone="no"?>
<!-- Created with Inkscape (http://www.inkscape.org/) -->

<svg
   width="210mm"
   height="297mm"
   viewBox="0 0 210 297"
   version="1.1"
   id="svg5"
   sodipodi:docname="flow.svg"
   inkscape:version="1.2.2 (b0a8486541, 2022-12-01)"
   xmlns:inkscape="http://www.inkscape.org/namespaces/inkscape"
   xmlns:sodipodi="http://sodipodi.sourceforge.net/DTD/sodipodi-0.dtd"
   xmlns:xlink="http://www.w3.org/1999/xlink"
   xmlns="http://www.w3.org/2000/svg"
   xmlns:svg="http://www.w3.org/2000/svg">
  <sodipodi:namedview
     id="namedview7"
     pagecolor="#ffffff"
     bordercolor="#000000"
     borderopacity="0.25"
     inkscape:showpageshadow="2"
     inkscape:pageopacity="0.0"
     inkscape:pagecheckerboard="0"
     inkscape:deskcolor="#d1d1d1"
     inkscape:document-units="mm"
     showgrid="false"
     inkscape:zoom="1.0066639"
     inkscape:cx="261.7557"
     inkscape:cy="314.40485"
     inkscape:window-width="1366"
     inkscape:window-height="744"
     inkscape:window-x="0"
     inkscape:window-y="0"
     inkscape:window-maximized="1"
     inkscape:current-layer="layer1" />
  <defs
     id="defs2">
    <rect
       x="284.23465"
       y="107.93725"
       width="63.391078"
       height="42.310608"
       id="rect102439" />
    <rect
       x="276.89717"
       y="105.46566"
       width="65.535055"
       height="46.418912"
       id="rect102324" />
    <rect
       x="169.17153"
       y="84.839365"
       width="79.410549"
       height="24.462142"
       id="rect101449" />
    <rect
       x="78.396578"
       y="93.034627"
       width="44.090613"
       height="19.98171"
       id="rect100694" />
    <symbol
       id="user-circle">
      <title
         id="user-circle-title">User Circle</title>
      <path
         d="M 256,8 C 119.033,8 8,119.033 8,256 8,392.967 119.033,504 256,504 392.967,504 504,392.967 504,256 504,119.033 392.967,8 256,8 Z M 144,208 c 0,-61.856 50.144,-112 112,-112 61.856,0 112,50.144 112,112 0,61.856 -50.144,112 -112,112 -61.856,0 -112,-50.144 -112,-112 z m 268.408,172.663 c -80.346,100.411 -232.375,100.53 -312.817,0 C 117.003,362.973 141.218,352 168,352 h 18.204 c 44.03,21.336 95.495,21.368 139.592,0 H 344 c 26.782,0 50.997,10.973 68.408,28.663 z"
         id="path74694" />
    </symbol>
    <symbol
       id="icon-preferences-system-network-symbolic">
      <title
         id="title79609">preferences-system-network-symbolic</title>
      <path
         d="M 3.5,8 C 1.596,8 0,9.596 0,11.5 v 9 C 0,22.404 1.596,24 3.5,24 h 0.25 l -3,6 h 18.5 l -3,-6 h 0.25 c 1.904,0 3.5,-1.596 3.5,-3.5 v -9 C 20,9.596 18.404,8 16.5,8 Z M 4,12 h 12 v 8 H 4 Z"
         id="path79611" />
      <path
         d="m 15.499,2 c -1.904,0 -3.5,1.596 -3.5,3.5 V 6 h 16 v 8 h -6 v 6.5 c 0,1.318 -0.503,2.54 -1.313,3.5 h 10.563 l -3,-6 h 0.25 c 1.904,0 3.5,-1.596 3.5,-3.5 v -9 c 0,-1.904 -1.596,-3.5 -3.5,-3.5 z"
         id="path79613" />
    </symbol>
    <symbol
       id="database">
      <title
         id="database-title">Database</title>
      <path
         d="m 448,73.143 v 45.714 C 448,159.143 347.667,192 224,192 100.333,192 0,159.143 0,118.857 V 73.143 C 0,32.857 100.333,0 224,0 347.667,0 448,32.857 448,73.143 Z M 448,176 V 278.857 C 448,319.143 347.667,352 224,352 100.333,352 0,319.143 0,278.857 V 176 c 48.125,33.143 136.208,48.572 224,48.572 87.792,0 175.874,-15.429 224,-48.572 z m 0,160 V 438.857 C 448,479.143 347.667,512 224,512 100.333,512 0,479.143 0,438.857 V 336 c 48.125,33.143 136.208,48.572 224,48.572 87.792,0 175.874,-15.429 224,-48.572 z"
         id="path73470" />
    </symbol>
    <symbol
       id="icon-drive-harddisk-ieee1394-symbolic">
      <title
         id="title80158">drive-harddisk-ieee1394-symbolic</title>
      <path
         d="M 6.375,0 C 3.972,0 2,1.975 2,4.375 v 23.25 C 2,30.025 3.972,32 6.375,32 h 19.25 C 28.028,32 30,30.025 30,27.625 V 4.375 C 30,1.975 28.028,0 25.625,0 Z m 0,4 h 19.25 C 25.873,4 26,4.113 26,4.375 v 23.25 C 26,27.887 25.873,28 25.625,28 H 6.375 C 6.127,28 6,27.887 6,27.625 V 4.375 C 6,4.113 6.127,4 6.375,4 Z"
         id="path80160" />
      <path
         d="m 15.688,6 c -0.531,0.022 -1.089,0.117 -1.625,0.25 -4.289,1.062 -6.874,5.399 -5.813,9.688 0.9,3.634 4.151,6.045 7.731,6.051 0.336,10e-4 0.675,-0.02 1.015,-0.063 l -0.778,-5.959 c -0.069,0.02 -0.141,0.034 -0.219,0.034 -1.105,0 -2,-0.895 -2,-2 0,-1.105 0.895,-2 2,-2 1.105,0 2,0.895 2,2 0,0.235 -0.057,0.45 -0.145,0.65 l 5.401,2.774 c 0.772,-1.66 0.94,-3.561 0.494,-5.361 C 22.82,8.311 19.404,5.85 15.686,6.001 Z"
         id="path80162" />
      <path
         d="M 17.322,16 20,24 c 1.469,4.112 6,0.769 2.993,-2 z"
         id="path80164" />
    </symbol>
  </defs>
  <g
     inkscape:label="Layer 1"
     inkscape:groupmode="layer"
     id="layer1">
    <g
       id="g102331"
       inkscape:label="bulk storage"
       transform="translate(75.649205,10.972714)">
      <path
         style="display:inline;fill:none;fill-rule:evenodd;stroke:#000000;stroke-width:0.264583px;stroke-linecap:butt;stroke-linejoin:miter;stroke-opacity:1"
         d="m 181.82714,37.899259 -0.0327,266.282101"
         id="path102577"
         inkscape:connector-type="polyline"
         inkscape:connector-curvature="0"
         inkscape:connection-start="#g102331"
         transform="translate(-75.649205,-10.972714)"
         inkscape:label="line" />
      <use
         xlink:href="#icon-drive-harddisk-ieee1394-symbolic"
         style="fill:#000000;stroke:none"
         id="use102409"
         transform="matrix(0.1984375,0,0,0.1984375,103.00294,19.027286)"
         inkscape:label="icon" />
      <text
         xml:space="preserve"
         transform="matrix(0.26458333,0,0,0.26458333,24.173644,-3.0561202)"
         id="text102322"
         style="font-size:16px;font-family:serif;-inkscape-font-specification:serif;text-align:center;white-space:pre;shape-inside:url(#rect102324);display:inline;fill:#000000;stroke-width:1.88976;paint-order:stroke markers fill"
         inkscape:label="text"><tspan
           x="291.22656"
           y="119.62109"
           id="tspan102793">Bulk
</tspan><tspan
           x="277.70312"
           y="139.62109"
           id="tspan102795">Storage</tspan></text>
    </g>
    <g
       id="g102446"
       inkscape:label="master db"
       transform="translate(44.660559,8.2028812)">
      <path
         style="display:inline;fill:none;fill-rule:evenodd;stroke:#000000;stroke-width:0.264583px;stroke-linecap:butt;stroke-linejoin:miter;stroke-opacity:1"
         d="m 128.35571,38.434628 -0.0282,267.792652"
         id="path102575"
         inkscape:connector-type="polyline"
         inkscape:connector-curvature="0"
         inkscape:connection-start="#g102446"
         transform="translate(-44.660559,-8.2028812)"
         inkscape:label="line" />
      <use
         xlink:href="#database"
         style="fill:#000000;stroke:none"
         id="use102038"
         transform="matrix(0.01240234,0,0,0.01240234,80.917025,22.867856)"
         inkscape:label="icon" />
      <text
         xml:space="preserve"
         transform="scale(0.26458333)"
         id="text102437"
         style="font-size:16px;font-family:serif;-inkscape-font-specification:serif;text-align:center;white-space:pre;shape-inside:url(#rect102439);display:inline;fill:#000000;stroke-width:1.88976;paint-order:stroke markers fill"
         inkscape:label="text"><tspan
           x="287.08984"
           y="122.09375"
           id="tspan102797">Master
</tspan><tspan
           x="303.63672"
           y="142.09375"
           id="tspan102799">DB</tspan></text>
    </g>
    <g
       id="g101456"
       inkscape:label="system"
       transform="translate(24.760735,18.440876)">
      <path
         style="display:inline;fill:none;fill-rule:evenodd;stroke:#000000;stroke-width:0.264583px;stroke-linecap:butt;stroke-linejoin:miter;stroke-opacity:1"
         d="M 75.450644,40.582299 75.334663,304.779"
         id="path102573"
         inkscape:connector-type="polyline"
         inkscape:connector-curvature="0"
         inkscape:connection-start="#g101456"
         transform="translate(-24.760735,-18.440876)"
         inkscape:label="line" />
      <use
         xlink:href="#icon-preferences-system-network-symbolic"
         style="fill:#000000;stroke:none"
         id="use101424"
         transform="matrix(0.22678571,0,0,0.22678571,47.061451,16.471633)"
         inkscape:label="icon" />
      <text
         xml:space="preserve"
         transform="matrix(0.26458333,0,0,0.26458333,-4.6953402,0.2244152)"
         id="text101447"
         style="font-size:16px;font-family:serif;-inkscape-font-specification:serif;text-align:center;white-space:pre;shape-inside:url(#rect101449);display:inline;fill:#000000;stroke-width:1.88976;paint-order:stroke markers fill"
         inkscape:label="text"><tspan
           x="179.23633"
           y="98.996094"
           id="tspan102801">System</tspan></text>
    </g>
    <g
       id="g100751"
       inkscape:label="user"
       transform="translate(-1.638989,17.377515)">
      <path
         style="display:inline;fill:none;fill-rule:evenodd;stroke:#000000;stroke-width:0.264583px;stroke-linecap:butt;stroke-linejoin:miter;stroke-opacity:1"
         d="M 25.035351,41.050488 24.978457,300.17778"
         id="path102571"
         inkscape:connector-type="polyline"
         inkscape:connector-curvature="0"
         inkscape:connection-start="#g100751"
         transform="translate(1.638989,-17.377515)"
         inkscape:label="line" />
      <use
         xlink:href="#user-circle"
         style="fill:#000000;stroke:none"
         id="use100512"
         transform="matrix(0.01280242,0,0,0.01280242,23.396921,18.822523)"
         inkscape:label="icon" />
      <text
         xml:space="preserve"
         transform="scale(0.26458333)"
         id="text100692"
         style="font-size:16px;font-family:serif;-inkscape-font-specification:serif;text-align:center;white-space:pre;shape-inside:url(#rect100694);display:inline;fill:#000000;stroke-width:1.88976;paint-order:stroke markers fill"
         inkscape:label="text"><tspan
           x="81.035156"
           y="107.19141"
           id="tspan102803">User</tspan></text>
    </g>
  </g>
</svg>
